<?xml version="1.0" encoding="UTF-8" standalone="no"?>
<!DOCTYPE svg PUBLIC "-//W3C//DTD SVG 1.1//EN" "http://www.w3.org/Graphics/SVG/1.1/DTD/svg11.dtd">
<svg width="100%" height="100%" viewBox="0 0 75 75" version="1.1" xmlns="http://www.w3.org/2000/svg" xmlns:xlink="http://www.w3.org/1999/xlink" xml:space="preserve" xmlns:serif="http://www.serif.com/" style="fill-rule:evenodd;clip-rule:evenodd;stroke-linejoin:round;stroke-miterlimit:2;">
    <g>
        <g>
            <g>
                <g>
                    <path d="M37.5,13.199C36.322,13.199 35.369,12.246 35.369,11.068L35.369,8.406C35.369,7.228 36.322,6.275 37.5,6.275C38.676,6.275 39.629,7.228 39.629,8.406L39.629,11.068C39.629,12.246 38.676,13.199 37.5,13.199Z" style="fill:rgb(204,52,45);fill-rule:nonzero;"/>
                </g>
                <g>
                    <path d="M37.5,68.725C36.322,68.725 35.369,67.77 35.369,66.594L35.369,63.932C35.369,62.754 36.322,61.801 37.5,61.801C38.676,61.801 39.629,62.754 39.629,63.932L39.629,66.594C39.629,67.77 38.676,68.725 37.5,68.725Z" style="fill:rgb(204,52,45);fill-rule:nonzero;"/>
                </g>
            </g>
        </g>
        <g>
            <g>
                <g>
                    <path d="M54.684,20.316C53.852,19.484 53.852,18.134 54.684,17.302L56.567,15.419C57.399,14.587 58.749,14.587 59.579,15.419C60.413,16.251 60.413,17.601 59.579,18.433L57.696,20.316C56.863,21.148 55.514,21.148 54.684,20.316Z" style="fill:rgb(204,52,45);fill-rule:nonzero;"/>
                </g>
                <g>
                    <path d="M15.42,59.578C14.588,58.748 14.588,57.398 15.42,56.566L17.303,54.683C18.135,53.851 19.485,53.851 20.317,54.683C21.149,55.515 21.149,56.865 20.317,57.697L18.434,59.578C17.602,60.412 16.252,60.412 15.42,59.578Z" style="fill:rgb(204,52,45);fill-rule:nonzero;"/>
                </g>
            </g>
        </g>
        <g>
            <g>
                <g>
                    <path d="M61.801,37.5C61.801,36.322 62.754,35.369 63.932,35.369L66.594,35.369C67.77,35.369 68.725,36.324 68.725,37.5C68.725,38.676 67.77,39.631 66.594,39.631L63.932,39.631C62.754,39.631 61.801,38.676 61.801,37.5Z" style="fill:rgb(204,52,45);fill-rule:nonzero;"/>
                </g>
                <g>
                    <path d="M6.275,37.5C6.273,36.322 7.228,35.369 8.406,35.369L11.068,35.369C12.244,35.369 13.199,36.324 13.199,37.5C13.197,38.676 12.244,39.631 11.068,39.631L8.406,39.631C7.229,39.631 6.275,38.676 6.275,37.5Z" style="fill:rgb(204,52,45);fill-rule:nonzero;"/>
                </g>
            </g>
        </g>
        <g>
            <g>
                <g>
                    <path d="M54.684,54.684C55.516,53.852 56.864,53.852 57.696,54.684L59.579,56.567C60.413,57.399 60.411,58.749 59.579,59.579C58.749,60.413 57.399,60.413 56.567,59.579L54.684,57.698C53.852,56.865 53.852,55.514 54.684,54.684Z" style="fill:rgb(204,52,45);fill-rule:nonzero;"/>
                </g>
                <g>
                    <path d="M15.42,15.42C16.252,14.588 17.602,14.588 18.434,15.42L20.317,17.303C21.149,18.135 21.149,19.485 20.317,20.317C19.485,21.149 18.135,21.149 17.303,20.317L15.42,18.434C14.588,17.602 14.588,16.252 15.42,15.42Z" style="fill:rgb(204,52,45);fill-rule:nonzero;"/>
                </g>
            </g>
        </g>
    </g>
    <g transform="matrix(0.591054,0,0,0.591054,-0.325714,-0.600775)">
        <path d="M83.543,35.759L44.504,35.759L43.753,36.486L43.753,55.25L83.836,55.25L83.836,36.043L83.543,35.759Z" style="fill:rgb(212,67,62);fill-rule:nonzero;"/>
        <path d="M46.685,55L25.207,55L63.604,100.509L63.746,100.343L46.685,55Z" style="fill:rgb(212,67,62);fill-rule:nonzero;"/>
        <path d="M81.262,55L63.974,100.08L102.739,55L81.262,55Z" style="fill:rgb(183,46,41);fill-rule:nonzero;"/>
        <path d="M81.262,55L64.12,55L64.178,54.944L63.872,54.944L63.93,55L46.685,55L63.746,100.343L63.974,100.08L81.262,55Z" style="fill:rgb(204,52,45);fill-rule:nonzero;"/>
        <path d="M44.011,36.557L35.694,55L46.685,55L46.663,54.944L63.872,54.944L44.433,36.148L44.011,36.557Z" style="fill:rgb(204,52,45);fill-rule:nonzero;"/>
        <path d="M44.011,36.557L25.085,54.855L25.207,55L35.694,55L44.011,36.557Z" style="fill:rgb(212,67,62);fill-rule:nonzero;"/>
        <path d="M84.038,36.557L83.618,36.148L64.178,54.944L81.284,54.944L81.262,55L92.354,55L84.038,36.557Z" style="fill:rgb(183,46,41);fill-rule:nonzero;"/>
        <path d="M84.038,36.557L92.354,55L102.739,55L102.909,54.802L84.038,36.557Z" style="fill:rgb(204,52,45);fill-rule:nonzero;"/>
    </g>
</svg>
